<?xml version="1.0" standalone="no"?>
<!DOCTYPE svg PUBLIC "-//W3C//DTD SVG 20010904//EN"
 "http://www.w3.org/TR/2001/REC-SVG-20010904/DTD/svg10.dtd">
<svg version="1.0" xmlns="http://www.w3.org/2000/svg"
 width="260.000000pt" height="260.000000pt" viewBox="0 0 260.000000 260.000000"
 preserveAspectRatio="xMidYMid meet">
<metadata>
Created by potrace 1.11, written by Peter Selinger 2001-2013
</metadata>
<g transform="translate(0.000000,260.000000) scale(0.100000,-0.100000)"
fill="#000000" stroke="none">
<path d="M1275 2590 c-4 -6 -8 -41 -11 -78 -2 -37 -13 -103 -24 -146 -22 -87
-25 -116 -11 -116 5 0 16 -2 24 -5 29 -12 75 161 73 276 -1 68 -3 74 -23 77
-11 2 -24 -2 -28 -8z"/>
<path d="M2009 2343 c-114 -97 -191 -169 -200 -185 -10 -19 4 -58 21 -58 9 0
141 113 227 195 33 31 41 45 37 62 -10 37 -30 33 -85 -14z"/>
<path d="M477 2373 c-19 -18 -3 -57 49 -115 30 -34 70 -86 87 -115 24 -40 37
-53 52 -51 14 2 21 12 23 34 2 25 -9 47 -56 110 -55 75 -123 144 -141 144 -4
0 -11 -3 -14 -7z"/>
<path d="M1140 2054 c-36 -7 -75 -15 -88 -18 -63 -14 -179 -85 -247 -151 -169
-164 -258 -379 -257 -627 1 -242 102 -416 320 -551 50 -31 95 -57 98 -57 3 0
19 -9 35 -21 44 -31 196 -94 262 -108 56 -12 92 -35 82 -51 -7 -11 -62 -18
-193 -25 -153 -8 -209 -40 -183 -107 19 -51 70 -66 228 -67 80 -1 105 -4 118
-17 9 -9 13 -20 8 -25 -4 -4 -62 -10 -128 -12 -137 -4 -186 -20 -205 -67 -9
-23 -9 -34 4 -59 33 -63 111 -88 271 -87 109 1 122 9 86 55 -17 22 -26 24
-124 26 -79 2 -113 6 -132 19 -47 31 -30 37 93 35 137 -3 185 9 211 52 22 36
17 67 -15 104 -30 35 -92 52 -198 54 -105 3 -137 20 -41 22 216 4 295 37 295
123 0 51 -53 82 -206 120 -111 28 -186 64 -324 154 -121 80 -158 113 -204 185
-176 277 -81 745 188 920 182 119 414 141 640 60 103 -37 137 -56 199 -113
130 -119 210 -314 210 -515 1 -119 -13 -185 -60 -282 -57 -118 -180 -225 -347
-304 -90 -42 -111 -62 -95 -92 14 -25 35 -21 116 17 257 123 407 304 442 531
9 61 8 185 -4 262 -9 66 -51 195 -84 262 -83 168 -251 298 -445 346 -87 21
-242 25 -326 9z"/>
<path d="M1175 1913 c-390 -79 -569 -536 -342 -873 99 -146 263 -234 437 -234
121 0 143 6 260 62 78 39 189 151 228 232 73 151 84 313 31 455 -96 260 -355
410 -614 358z"/>
<path d="M2460 1810 c-106 -42 -211 -98 -238 -127 -17 -19 -20 -28 -12 -44 14
-25 37 -24 85 7 61 38 175 90 238 108 59 17 80 43 57 71 -18 21 -45 18 -130
-15z"/>
<path d="M12 1758 c-17 -17 -15 -42 6 -61 10 -9 54 -24 97 -33 43 -9 107 -27
142 -40 35 -13 68 -24 74 -24 15 0 28 43 18 61 -12 24 -112 58 -224 76 -16 2
-43 11 -59 19 -35 17 -39 17 -54 2z"/>
</g>
</svg>
